<!-- Generated by IcoMoon.io -->
<svg width="27" height="32" viewBox="0 0 27 32">
<path d="M20.237 11.762c0.106 0.106 0.191 0.232 0.248 0.371s0.087 0.288 0.087 0.438c0 0.15-0.030 0.299-0.087 0.438s-0.142 0.265-0.248 0.371l-6.857 6.857c-0.106 0.106-0.232 0.191-0.371 0.248s-0.288 0.087-0.438 0.087-0.299-0.030-0.438-0.087c-0.139-0.058-0.265-0.142-0.371-0.248l-3.429-3.429c-0.106-0.106-0.191-0.232-0.248-0.371s-0.087-0.288-0.087-0.438c0-0.15 0.030-0.299 0.087-0.438s0.142-0.265 0.248-0.371c0.106-0.106 0.232-0.191 0.371-0.248s0.288-0.087 0.438-0.087c0.15 0 0.299 0.030 0.438 0.087s0.265 0.142 0.371 0.248l2.619 2.622 6.048-6.050c0.106-0.106 0.232-0.191 0.371-0.248s0.288-0.087 0.438-0.087 0.299 0.030 0.438 0.087c0.139 0.058 0.265 0.142 0.371 0.248z"></path>
<path d="M4.571 0h18.286c1.212 0 2.375 0.482 3.233 1.339s1.339 2.020 1.339 3.232v22.857c0 1.212-0.482 2.375-1.339 3.233s-2.020 1.339-3.233 1.339h-18.286c-1.212 0-2.375-0.482-3.232-1.339s-1.339-2.020-1.339-3.233v-22.857c0-1.212 0.482-2.375 1.339-3.232s2.020-1.339 3.232-1.339zM4.571 2.286c-0.606 0-1.188 0.241-1.616 0.669s-0.669 1.010-0.669 1.616v22.857c0 0.606 0.241 1.188 0.669 1.616s1.010 0.669 1.616 0.669h18.286c0.606 0 1.188-0.241 1.616-0.669s0.669-1.010 0.669-1.616v-22.857c0-0.606-0.241-1.188-0.669-1.616s-1.010-0.669-1.616-0.669h-18.286z"></path>
</svg>
