<!-- Generated by IcoMoon.io -->
<svg version="1.1" xmlns="http://www.w3.org/2000/svg" width="32" height="32" viewBox="0 0 32 32">
<title>phone</title>
<path d="M29.33 5.195l-4.039-4.025-8.388 8.374 3.252 3.358c-0.545 0.967-1.727 2.82-3.742 4.836s-3.882 3.211-4.859 3.765l-3.292-3.25-8.257 8.208 4.017 4.044c1.535 1.536 3.872 1.933 5.814 0.99 2.963-1.439 7.435-4.095 11.913-8.572s7.133-8.949 8.572-11.913c0.341-0.702 0.507-1.456 0.507-2.204 0-1.322-0.517-2.629-1.497-3.609zM28.155 9.957c-1.358 2.797-3.868 7.021-8.109 11.262s-8.465 6.751-11.262 8.109c-1.020 0.495-2.25 0.284-3.057-0.524l-2.318-2.334 4.86-4.831 2.805 2.769 0.75-0.334c0.122-0.054 3.024-1.368 6.292-4.635 3.27-3.27 4.556-6.147 4.609-6.268l0.326-0.74-2.768-2.858 5.011-5.003 2.337 2.329c0.81 0.811 1.021 2.040 0.526 3.059z"></path>
</svg>
