<svg aria-hidden="true" style="position: absolute; width: 0; height: 0; overflow: hidden;" version="1.1" xmlns="http://www.w3.org/2000/svg" xmlns:xlink="http://www.w3.org/1999/xlink">
<defs>
<symbol id="icon-check" viewBox="0 0 27 32">
<path d="M20.237 11.762c0.106 0.106 0.191 0.232 0.248 0.371s0.087 0.288 0.087 0.438c0 0.15-0.030 0.299-0.087 0.438s-0.142 0.265-0.248 0.371l-6.857 6.857c-0.106 0.106-0.232 0.191-0.371 0.248s-0.288 0.087-0.438 0.087-0.299-0.030-0.438-0.087c-0.139-0.058-0.265-0.142-0.371-0.248l-3.429-3.429c-0.106-0.106-0.191-0.232-0.248-0.371s-0.087-0.288-0.087-0.438c0-0.15 0.030-0.299 0.087-0.438s0.142-0.265 0.248-0.371c0.106-0.106 0.232-0.191 0.371-0.248s0.288-0.087 0.438-0.087c0.15 0 0.299 0.030 0.438 0.087s0.265 0.142 0.371 0.248l2.619 2.622 6.048-6.050c0.106-0.106 0.232-0.191 0.371-0.248s0.288-0.087 0.438-0.087 0.299 0.030 0.438 0.087c0.139 0.058 0.265 0.142 0.371 0.248z"></path>
<path d="M4.571 0h18.286c1.212 0 2.375 0.482 3.233 1.339s1.339 2.020 1.339 3.232v22.857c0 1.212-0.482 2.375-1.339 3.233s-2.020 1.339-3.233 1.339h-18.286c-1.212 0-2.375-0.482-3.232-1.339s-1.339-2.020-1.339-3.233v-22.857c0-1.212 0.482-2.375 1.339-3.232s2.020-1.339 3.232-1.339zM4.571 2.286c-0.606 0-1.188 0.241-1.616 0.669s-0.669 1.010-0.669 1.616v22.857c0 0.606 0.241 1.188 0.669 1.616s1.010 0.669 1.616 0.669h18.286c0.606 0 1.188-0.241 1.616-0.669s0.669-1.010 0.669-1.616v-22.857c0-0.606-0.241-1.188-0.669-1.616s-1.010-0.669-1.616-0.669h-18.286z"></path>
</symbol>
<symbol id="icon-facebook" viewBox="0 0 32 32">
<path d="M28.25 0h-24.5c-2.068 0-3.75 1.682-3.75 3.75v24.5c0 2.068 1.682 3.75 3.75 3.75h24.5c2.068 0 3.75-1.682 3.75-3.75v-24.5c0-2.068-1.682-3.75-3.75-3.75zM29.5 28.25c0 0.689-0.561 1.25-1.25 1.25h-7.375v-9.125h4.002l0.466-3.875h-4.468v-4.187c0-1.069 0.806-1.875 1.875-1.875h2.813v-3.625c-0.74-0.104-2.168-0.25-2.813-0.25-1.458 0-2.919 0.615-4.009 1.687-1.123 1.104-1.741 2.551-1.741 4.074v4.176h-4.062v3.875h4.062v9.125h-13.25c-0.689 0-1.25-0.561-1.25-1.25v-24.5c0-0.689 0.561-1.25 1.25-1.25h24.5c0.689 0 1.25 0.561 1.25 1.25v24.5z"></path>
</symbol>
<symbol id="icon-twitter" viewBox="0 0 32 32">
<path d="M28.203 7.186l-0.016-0.061c1.356-0.813 2.45-2.153 2.937-3.688-1.27 0.755-2.756 1.329-4.25 1.625-1.198-1.277-2.797-2.063-4.687-2.063-3.623 0-6.625 2.934-6.625 6.563 0 0.516 0.073 1.022 0.188 1.5v0.063c-5.4-0.309-10.29-3.055-13.5-7-0.563 0.971-0.875 2.358-0.875 3.563 0 1.875 1.113 4.386 2.875 5.563v0.125c-1.052-0.042-2.129-0.767-3-1.25 0 0.029 0.038 0.063 0.038 0.092 0 3.184 2.334 5.931 5.337 6.533-0.523 0.138-1.26 0.25-1.813 0.25-0.425 0-0.849-0.111-1.25-0.187 0.835 2.611 3.25 4.313 6.125 4.313v0.062c-2.238 1.735-5.074 2.937-8.125 2.937-0.53 0-1.188-0.062-1.563-0.125 2.903 1.865 6.353 3 10.063 3 12.073 0 18.688-9.938 18.688-18.625v-0.875c1.284-0.928 2.371-2.18 3.25-3.5 0 0-2.304 1.092-3.797 1.186zM26.25 10.375c0 1.876-0.367 3.846-1.063 5.696-0.73 1.945-1.782 3.7-3.125 5.216-2.106 2.378-5.898 5.212-12 5.212-0.179 0-0.358-0.003-0.537-0.009 0.589-0.342 1.155-0.722 1.694-1.14l0.968-0.751v-3.975l-1.030-0.011c-1.126-0.013-2.033-0.929-2.033-2.055v-2.044l-1.352-0.305c-0.598-0.135-1.023-0.667-1.023-1.28v-1.742l-0.031-1.274-1.112-0.742c-0.48-0.404-0.915-0.981-1.225-1.605 3.281 2.392 7.177 3.824 11.226 4.055l2.643 0.151v-3.005l-0.069-0.287c-0.079-0.329-0.119-0.637-0.119-0.918 0-1.076 0.43-2.093 1.209-2.862 0.785-0.774 1.82-1.2 2.916-1.2 1.108 0 2.072 0.428 2.865 1.273l0.638 0.68 0.077 0.298 0.016 0.061 0.467 1.805v0.757z"></path>
</symbol>
<symbol id="icon-shopping-bag" viewBox="0 0 32 32">
<path d="M31.794 10.966c-0.156-0.154-0.375-0.226-0.592-0.197h-8.489v-3.751c0-3.707-3.005-6.712-6.712-6.712s-6.712 3.005-6.712 6.712v3.751h-8.489c-0.237 0-0.474 0-0.592 0.197-0.159 0.153-0.233 0.374-0.197 0.592l2.961 16.189c0.414 2.258 2.364 3.911 4.659 3.948h16.741c2.302-0.057 4.248-1.722 4.659-3.988l2.961-16.149c0.036-0.218-0.038-0.439-0.197-0.592zM10.867 7.017c0-2.835 2.298-5.133 5.133-5.133s5.133 2.298 5.133 5.133v3.751h-10.266v-3.751zM27.451 27.51c-0.266 1.497-1.56 2.591-3.080 2.606h-16.741c-1.52-0.015-2.814-1.109-3.080-2.606l-2.803-15.162h28.508l-2.803 15.162z"></path>
<path d="M21.923 20.047c0.436 0 0.79-0.354 0.79-0.79v-2.369c0-0.436-0.353-0.79-0.79-0.79s-0.79 0.354-0.79 0.79v2.369c0 0.436 0.353 0.79 0.79 0.79z"></path>
<path d="M10.077 20.047c0.436 0 0.79-0.354 0.79-0.79v-2.369c0-0.436-0.354-0.79-0.79-0.79s-0.79 0.354-0.79 0.79v2.369c0 0.436 0.354 0.79 0.79 0.79z"></path>
</symbol>
<symbol id="icon-phone" viewBox="0 0 32 32">
<path d="M4.24 9.066c-2.827 2.827-2.827 7.427 0 10.253l1.502-1.502c-1.999-1.999-1.999-5.251 0-7.25s5.251-1.999 7.25 0l1.502-1.502c-2.827-2.827-7.427-2.827-10.253 0z"></path>
<path d="M7.231 12.030c-1.19 1.19-1.19 3.126 0 4.316l1.502-1.502c-0.175-0.175-0.272-0.409-0.272-0.657s0.097-0.481 0.272-0.657 0.409-0.272 0.657-0.272c0.248 0 0.481 0.097 0.657 0.272l1.502-1.502c-1.19-1.19-3.126-1.19-4.316 0z"></path>
<path d="M25.879 8.348l-3.564-3.551-7.401 7.389 2.869 2.963c-0.481 0.854-1.524 2.489-3.302 4.267s-3.425 2.833-4.287 3.322l-2.905-2.868-7.285 7.242 3.544 3.568c1.355 1.355 3.416 1.706 5.13 0.874 2.615-1.27 6.56-3.613 10.511-7.564s6.294-7.897 7.564-10.511c0.301-0.62 0.447-1.284 0.447-1.945 0-1.167-0.456-2.32-1.321-3.185zM24.843 12.55c-1.199 2.468-3.413 6.195-7.155 9.937s-7.469 5.956-9.937 7.155c-0.9 0.437-1.985 0.25-2.698-0.463l-2.046-2.059 4.288-4.262 2.475 2.443 0.662-0.295c0.108-0.048 2.668-1.207 5.552-4.090 2.885-2.885 4.020-5.424 4.067-5.531l0.287-0.653-2.442-2.522 4.422-4.415 2.062 2.055c0.714 0.715 0.901 1.8 0.464 2.699z"></path>
</symbol>
<symbol id="icon-instagram" viewBox="0 0 31 32">
<path d="M21.717 0.696h-12.826c-4.903 0-8.891 3.989-8.891 8.891v12.826c0 4.903 3.989 8.891 8.891 8.891h12.826c4.903 0 8.891-3.989 8.891-8.891v-12.826c0-4.903-3.989-8.891-8.891-8.891zM28.217 22.413c0 3.584-2.916 6.5-6.5 6.5h-12.826c-3.584 0-6.5-2.916-6.5-6.5v-12.826c0-3.584 2.916-6.5 6.5-6.5h12.826c3.584 0 6.5 2.916 6.5 6.5v12.826z"></path>
<path d="M15.304 7.75c-4.549 0-8.25 3.701-8.25 8.25s3.701 8.25 8.25 8.25c4.549 0 8.25-3.701 8.25-8.25s-3.701-8.25-8.25-8.25zM15.304 21.859c-3.23 0-5.859-2.628-5.859-5.859s2.628-5.859 5.859-5.859c3.23 0 5.859 2.628 5.859 5.859s-2.628 5.859-5.859 5.859z"></path>
<path d="M23.674 8.826c0.66 0 1.196-0.535 1.196-1.196s-0.535-1.196-1.196-1.196c-0.66 0-1.196 0.535-1.196 1.196s0.535 1.196 1.196 1.196z"></path>
</symbol>
<symbol id="icon-close" viewBox="0 0 32 32">
<path d="M2 2l29 29zM31 2l-29 29z"></path>
</symbol>
<symbol id="icon-arrow" viewBox="0 0 18 32">
<path stroke-linejoin="miter" stroke-linecap="butt" stroke-miterlimit="4" stroke-width="1.1034" d="M8.828 0v30.897M8.828 30.897l-7.724-7.933M8.828 30.897l7.724-7.933"></path>
</symbol>
</defs>
</svg>
