<!-- Generated by IcoMoon.io -->
<svg version="1.1" xmlns="http://www.w3.org/2000/svg" width="32" height="32" viewBox="0 0 32 32">
<title>twitter</title>
<path d="M28.203 7.186l-0.016-0.061c1.356-0.813 2.45-2.153 2.937-3.688-1.27 0.755-2.756 1.329-4.25 1.625-1.198-1.277-2.797-2.063-4.687-2.063-3.623 0-6.625 2.934-6.625 6.563 0 0.516 0.073 1.022 0.188 1.5v0.063c-5.4-0.309-10.29-3.055-13.5-7-0.563 0.971-0.875 2.358-0.875 3.563 0 1.875 1.113 4.386 2.875 5.563v0.125c-1.052-0.042-2.129-0.767-3-1.25 0 0.029 0.038 0.063 0.038 0.092 0 3.184 2.334 5.931 5.337 6.533-0.523 0.138-1.26 0.25-1.813 0.25-0.425 0-0.849-0.111-1.25-0.187 0.835 2.611 3.25 4.313 6.125 4.313v0.062c-2.238 1.735-5.074 2.937-8.125 2.937-0.53 0-1.188-0.062-1.563-0.125 2.903 1.865 6.353 3 10.063 3 12.073 0 18.688-9.938 18.688-18.625v-0.875c1.284-0.928 2.371-2.18 3.25-3.5 0 0-2.304 1.092-3.797 1.186zM26.25 10.375c0 1.876-0.367 3.846-1.063 5.696-0.73 1.945-1.782 3.7-3.125 5.216-2.106 2.378-5.898 5.212-12 5.212-0.179 0-0.358-0.003-0.537-0.009 0.589-0.342 1.155-0.722 1.694-1.14l0.968-0.751v-3.975l-1.030-0.011c-1.126-0.013-2.033-0.929-2.033-2.055v-2.044l-1.352-0.305c-0.598-0.135-1.023-0.667-1.023-1.28v-1.742l-0.031-1.274-1.112-0.742c-0.48-0.404-0.915-0.981-1.225-1.605 3.281 2.392 7.177 3.824 11.226 4.055l2.643 0.151v-3.005l-0.069-0.287c-0.079-0.329-0.119-0.637-0.119-0.918 0-1.076 0.43-2.093 1.209-2.862 0.785-0.774 1.82-1.2 2.916-1.2 1.108 0 2.072 0.428 2.865 1.273l0.638 0.68 0.077 0.298 0.016 0.061 0.467 1.805v0.757z"></path>
</svg>
