<!-- Generated by IcoMoon.io -->
<svg version="1.1" xmlns="http://www.w3.org/2000/svg" width="32" height="32" viewBox="0 0 32 32">
<title>facebook</title>
<path d="M28.25 0h-24.5c-2.068 0-3.75 1.682-3.75 3.75v24.5c0 2.068 1.682 3.75 3.75 3.75h24.5c2.068 0 3.75-1.682 3.75-3.75v-24.5c0-2.068-1.682-3.75-3.75-3.75zM29.5 28.25c0 0.689-0.561 1.25-1.25 1.25h-7.375v-9.125h4.002l0.466-3.875h-4.468v-4.187c0-1.069 0.806-1.875 1.875-1.875h2.813v-3.625c-0.74-0.104-2.168-0.25-2.813-0.25-1.458 0-2.919 0.615-4.009 1.687-1.123 1.104-1.741 2.551-1.741 4.074v4.176h-4.062v3.875h4.062v9.125h-13.25c-0.689 0-1.25-0.561-1.25-1.25v-24.5c0-0.689 0.561-1.25 1.25-1.25h24.5c0.689 0 1.25 0.561 1.25 1.25v24.5z"></path>
</svg>
