<!-- Generated by IcoMoon.io -->
<svg version="1.1" xmlns="http://www.w3.org/2000/svg" width="31" height="32" viewBox="0 0 31 32">
<title>instagram</title>
<path d="M21.717 0.696h-12.826c-4.903 0-8.891 3.989-8.891 8.891v12.826c0 4.903 3.989 8.891 8.891 8.891h12.826c4.903 0 8.891-3.989 8.891-8.891v-12.826c0-4.903-3.989-8.891-8.891-8.891zM28.217 22.413c0 3.584-2.916 6.5-6.5 6.5h-12.826c-3.584 0-6.5-2.916-6.5-6.5v-12.826c0-3.584 2.916-6.5 6.5-6.5h12.826c3.584 0 6.5 2.916 6.5 6.5v12.826z"></path>
<path d="M15.304 7.75c-4.549 0-8.25 3.701-8.25 8.25s3.701 8.25 8.25 8.25c4.549 0 8.25-3.701 8.25-8.25s-3.701-8.25-8.25-8.25zM15.304 21.859c-3.23 0-5.859-2.628-5.859-5.859s2.628-5.859 5.859-5.859c3.23 0 5.859 2.628 5.859 5.859s-2.628 5.859-5.859 5.859z"></path>
<path d="M23.674 8.826c0.66 0 1.196-0.535 1.196-1.196s-0.535-1.196-1.196-1.196c-0.66 0-1.196 0.535-1.196 1.196s0.535 1.196 1.196 1.196z"></path>
</svg>
