<!-- Generated by IcoMoon.io -->
<svg width="32" height="32" viewBox="0 0 32 32">
<path d="M4.24 9.066c-2.827 2.827-2.827 7.427-0 10.253l1.502-1.502c-1.999-1.999-1.999-5.251 0-7.25s5.251-1.999 7.25-0l1.502-1.502c-2.827-2.827-7.427-2.827-10.253-0z"></path>
<path d="M7.231 12.030c-1.19 1.19-1.19 3.126-0 4.316l1.502-1.502c-0.175-0.175-0.272-0.409-0.272-0.657s0.097-0.481 0.272-0.657 0.409-0.272 0.657-0.272c0.248 0 0.481 0.097 0.657 0.272l1.502-1.502c-1.19-1.19-3.126-1.19-4.316-0z"></path>
<path d="M25.879 8.348l-3.564-3.551-7.401 7.389 2.869 2.963c-0.481 0.854-1.524 2.489-3.302 4.267s-3.425 2.833-4.287 3.322l-2.905-2.868-7.285 7.242 3.544 3.568c1.355 1.355 3.416 1.706 5.13 0.874 2.615-1.27 6.56-3.613 10.511-7.564s6.294-7.897 7.564-10.511c0.301-0.62 0.447-1.284 0.447-1.945 0-1.167-0.456-2.32-1.321-3.185zM24.843 12.55c-1.199 2.468-3.413 6.195-7.155 9.937s-7.469 5.956-9.937 7.155c-0.9 0.437-1.985 0.25-2.698-0.463l-2.046-2.059 4.288-4.262 2.475 2.443 0.662-0.295c0.108-0.048 2.668-1.207 5.552-4.090 2.885-2.885 4.020-5.424 4.067-5.531l0.287-0.653-2.442-2.522 4.422-4.415 2.062 2.055c0.714 0.715 0.901 1.8 0.464 2.699z"></path>
</svg>
